# xmcd
#
# Track frame offsets:
#	150
#	17125
#	32880
#	52717
#	77685
#	101552
#	122100
#	147087
#	164200
#	184917
#	216722
#	238062
#	256307
#
# Disc length: 3771 seconds
#
# Revision: 3
# Processed by: cddbd v1.5.1PL2 Copyright (c) Steve Scherf et al.
# Submitted via: audiograbber 1.83.01
#
DISCID=bc0eb90d
DTITLE=Bad Influence - Live At The Bad Habits Cafe
DYEAR=1993
DGENRE=Blues
TTITLE0=Woke Up This Morning
TTITLE1=No Particular Place to Go
TTITLE2=Alberta
TTITLE3=Mustang Sally
TTITLE4=Some Kind Of Wonderful
TTITLE5=Tain't Nobody's Business If I Do
TTITLE6=Sweet Home Chicago
TTITLE7=Bright Lights Big City
TTITLE8=My Baby's A Superstar
TTITLE9=How Blue Can You Get
TTITLE10=Rock Me Baby
TTITLE11=Night Life
TTITLE12=Why I Sing The Blues
EXTD=Recorded August 14, 1993
EXTT0=
EXTT1=
EXTT2=
EXTT3=
EXTT4=
EXTT5=
EXTT6=
EXTT7=
EXTT8=
EXTT9=
EXTT10=
EXTT11=
EXTT12=
PLAYORDER=
